<svg xmlns="http://www.w3.org/2000/svg" viewBox="0 0 512 512" width="512" height="512">
  <defs>
    <linearGradient id="blueGrad" x1="0%" y1="0%" x2="0%" y2="100%">
      <stop offset="0%" stop-color="#5ccfff"/>
      <stop offset="45%" stop-color="#16B0ED"/>
      <stop offset="60%" stop-color="#0d7aaa"/>
      <stop offset="75%" stop-color="#16B0ED"/>
      <stop offset="100%" stop-color="#0F59B2"/>
    </linearGradient>
    <linearGradient id="greenGrad" x1="0%" y1="0%" x2="0%" y2="100%">
      <stop offset="0%" stop-color="#b0e868"/>
      <stop offset="45%" stop-color="#88C649"/>
      <stop offset="60%" stop-color="#5a9a28"/>
      <stop offset="75%" stop-color="#88C649"/>
      <stop offset="100%" stop-color="#367533"/>
    </linearGradient>
  </defs>

  <!-- Background -->
  <rect width="512" height="512" rx="96" fill="#111320"/>

  <!-- HUD / Radar grid lines -->
  <defs>
    <clipPath id="bgClip">
      <rect width="512" height="512" rx="96"/>
    </clipPath>
  </defs>
  <g clip-path="url(#bgClip)" opacity="0.07" stroke="#4ae0ff" stroke-width="0.5" fill="none">
    <!-- Horizontal grid -->
    <line x1="0" y1="64" x2="512" y2="64"/>
    <line x1="0" y1="128" x2="512" y2="128"/>
    <line x1="0" y1="192" x2="512" y2="192"/>
    <line x1="0" y1="256" x2="512" y2="256"/>
    <line x1="0" y1="320" x2="512" y2="320"/>
    <line x1="0" y1="384" x2="512" y2="384"/>
    <line x1="0" y1="448" x2="512" y2="448"/>
    <!-- Vertical grid -->
    <line x1="64" y1="0" x2="64" y2="512"/>
    <line x1="128" y1="0" x2="128" y2="512"/>
    <line x1="192" y1="0" x2="192" y2="512"/>
    <line x1="256" y1="0" x2="256" y2="512"/>
    <line x1="320" y1="0" x2="320" y2="512"/>
    <line x1="384" y1="0" x2="384" y2="512"/>
    <line x1="448" y1="0" x2="448" y2="512"/>
    <!-- Radar circles centered on the jet -->
    <circle cx="256" cy="200" r="60"/>
    <circle cx="256" cy="200" r="120"/>
    <circle cx="256" cy="200" r="180"/>
    <circle cx="256" cy="200" r="240"/>
    <!-- Crosshair -->
    <line x1="256" y1="0" x2="256" y2="512" stroke-width="0.8" opacity="0.6"/>
    <line x1="0" y1="200" x2="512" y2="200" stroke-width="0.8" opacity="0.6"/>
    <!-- Diagonal sweep lines -->
    <line x1="256" y1="200" x2="56" y2="0"/>
    <line x1="256" y1="200" x2="456" y2="0"/>
  </g>

  <!-- F-14 Tomcat -->
  <g transform="translate(138, 10) scale(0.315)">
    <path d="M 199.75933,595.13289 85.988495,883.93569 c 3.491652,35.13562 16.464895,53.67838 30.144435,70.98515 L 321.30927,706.95887 251.29649,670.00769 Z" fill="#8a929e" stroke="#636b78" stroke-width="1.2"/>
    <path d="m 558.92061,595.13289 113.77083,288.8028 c -3.49165,35.13562 -16.4649,53.67838 -30.14444,70.98515 L 437.37066,706.95887 507.38345,670.00769 Z" fill="#8a929e" stroke="#636b78" stroke-width="1.2"/>
    <path d="M 274.2764,769.59527 139.11278,940.73764 c -11.50949,9.38437 -10.07158,31.35643 -5.83438,35.97882 l 21.39278,23.33754 110.85362,-25.28233 26.25479,-52.50959 z" fill="#9aa2ae" stroke="#636b78" stroke-width="1.2"/>
    <path d="m 481.26919,767.59525 135.16362,171.14237 c 11.50949,9.38437 10.07158,31.35643 5.83438,35.97882 L 600.87441,998.05402 490.02079,972.77165 463.766,920.26206 Z" fill="#9aa2ae" stroke="#636b78" stroke-width="1.2"/>
    <path d="m 254.31141,763.76089 c -4.09708,76.2552 4.07554,145.29299 31.11681,203.23154 h 34.03402 c -2.58378,-11.34004 3.39234,-18.40011 7.77918,-26.25479 l 17.50319,49.59243 h 30.75394 30.75393 l 17.50319,-49.59243 c 4.38684,7.85468 10.36296,14.91475 7.77918,26.25479 h 34.03402 c 27.04127,-57.93855 35.21389,-126.97634 31.11681,-203.23154 l -34.34658,-70.15363 -86.63635,-53.63207 -70.82188,53.63207 z" fill="#a8b0bc" stroke="#636b78" stroke-width="1.2"/>
    <path d="m 341.85815,353.40815 h -10.6964 l -1.45861,-17.017 h -36.465 v 17.9894 l -83.14021,214.90039 c -12.64549,2.95395 -10.31934,19.00811 -13.61361,30.14438 6.15854,-6.70007 12.31708,5.17857 18.47562,17.50319 l 36.95119,61.26119 76.81959,35.00639 35.97882,-63.20598 14.58597,0.97237 z" fill="#b8c0cc" stroke="#636b78" stroke-width="1.2"/>
    <path d="m 416.82179,353.40815 h 10.69639 l 1.45861,-17.017 h 36.465 v 17.9894 L 548.582,569.28094 c 12.64549,2.95395 10.31934,19.00811 13.61361,30.14438 -6.15854,-6.70007 -12.31708,5.17857 -18.47562,17.50319 l -36.95118,61.26119 -76.81959,35.00639 -35.97882,-63.20598 -14.58598,0.97237 z" fill="#b8c0cc" stroke="#636b78" stroke-width="1.2"/>
    <path d="M 375.63735,748.94067 C 362.98528,618.93912 340.43693,491.93496 339.6014,358.35426 l -5.65262,-6.0639 C 332.81272,240.78544 329.37396,128.74905 376.2475,27.693527 423.12105,128.74905 419.68229,240.78544 418.54623,352.29036 l -5.65262,6.0639 c -0.83553,133.5807 -16.2641,259.95425 -28.91629,389.95574" fill="#d0d8e4" stroke="#636b78" stroke-width="1"/>
    <g stroke="#636b78" stroke-width="0.8" fill="none" opacity="0.6">
      <path d="m 293.23354,345.68645 v 245.9597"/><path d="m 459.27087,345.68645 v 245.9597"/>
      <path d="M 289.50513,358.27015 H 459.67508"/><path d="M 277.83632,395.22135 H 477.17828"/>
      <path d="m 257.4159,443.84135 35.97882,8.7516 h 61.26119 43.75799 61.26118 l 35.97882,-8.7516"/>
      <path d="m 295.94219,481.14176 h 165.0217"/>
      <path d="m 234.56451,507.04733 57.3716,6.8068 h 76.33341"/>
      <path d="m 517.53286,507.04733 -57.3716,6.8068 h -76.3334"/>
      <path d="M 213.25274,559.52712 H 537.79551"/><path d="M 225.32673,634.43171 H 527.74307"/>
      <path d="M 329.37354,747.23012 V 939.76527"/><path d="M 426.61348,747.23012 V 938.79285"/>
      <path d="M 362.43514,650.96248 V 851.27687"/><path d="M 395.49674,650.96248 V 851.27687"/>
      <path d="M 256.06194,852.78448 H 494.68147"/><path d="M 256.06194,862.06695 H 492.59309"/>
      <path d="M 273.93931,939.0771 H 477.46606"/>
      <path d="m 340.06993,862.4595 13.59781,23.55213 h 43.28755 l 13.96649,-24.19058"/>
      <path d="m 351.73869,937.82048 6.35556,-23.71911 h 34.97145 l 6.59626,24.61765"/>
      <path d="m 325.48389,710.27887 3.88959,36.95125 h 97.24 l 5.83438,-35.00639"/>
    </g>
    <path d="m 403.21398,232.92161 6.18834,4.12554 c 2.80216,55.38899 -0.28773,112.38491 -7.56354,170.52245 -7.35809,5.07908 -15.35109,9.09999 -25.1009,9.62626 -9.74976,-0.52627 -17.74276,-4.54718 -25.10085,-9.62626 -7.27581,-58.13754 -10.3657,-115.13346 -7.56354,-170.52245 l 6.18834,-4.12554 c 3.97658,-21.58677 -1.83441,-49.58612 26.47605,-55.00725 28.31051,5.42113 22.49952,33.42048 26.4761,55.00725 z" fill="#8a95a8" stroke="#636b78" stroke-width="0.8"/>
    <path d="m 405.86406,301.60897 -3.4034,-63.20598 c -5.03511,-5.90626 -14.73322,-9.2378 -25.72272,-9.2378 -10.98951,0 -20.68762,3.33154 -25.72272,9.2378 l -3.40341,63.20598 c 10.07924,3.6588 19.47611,6.3206 29.12613,6.3206 9.65001,0 19.04688,-2.6618 29.12612,-6.3206 z" fill="#4a7ab5" opacity="0.7" stroke="#3a6090" stroke-width="0.6"/>
    <path d="m 396.84915,403.26551 c 3.90729,-30.79851 9.56547,-59.93833 9.45436,-94.54372 -8.9187,2.81697 -17.60431,3.07005 -29.56563,3.43795 -11.96127,-0.3679 -20.64688,-0.62098 -29.56558,-3.43795 -0.11111,34.60539 5.54707,63.74521 9.45436,94.54372 5.9273,3.33603 11.6608,3.9594 20.11122,4.12549 8.45047,-0.16609 14.18397,-0.78946 20.11127,-4.12549 z" fill="#7a8698" stroke="#636b78" stroke-width="0.6"/>
    <path d="m 371.92092,217.79461 c -3.20465,-1.28184 -5.51632,-12.89862 -2.40657,-29.91019 h 7.22969 7.22963 c 3.10975,17.01157 0.7669,28.55295 -2.40657,29.91019 l -4.82306,2.06278 z" fill="#a8b0bc" stroke="#636b78" stroke-width="0.6"/>
    <path d="m 366.07643,187.88442 c -11.63029,5.79377 -9.66462,23.94747 -12.03283,38.16128 l 14.43939,-5.50072 c -3.03078,-9.29502 -5.67499,-18.86613 -2.40656,-32.66056 z" fill="#a0a8b4" stroke="#636b78" stroke-width="0.4"/>
    <path d="m 387.73551,187.88442 c 11.63029,5.79377 9.66462,23.94747 12.03283,38.16128 l -14.43939,-5.50072 c 3.03078,-9.29502 5.67499,-18.86613 2.40656,-32.66056 z" fill="#a0a8b4" stroke="#636b78" stroke-width="0.4"/>
    <g fill="#98a0ac" stroke="#636b78" stroke-width="0.8">
      <path d="m 1681.2772,1721.2357 13.002,177.1528 c 3.4512,47.0223 4.7731,92.0979 0,138.1468 l -26.004,-82.8881 c 0,0 -8.9057,-96.573 -4.8758,-144.6477 2.4939,-29.7511 17.8778,-87.7638 17.8778,-87.7638 z" transform="matrix(0.59830577,0,0,0.59830577,-555.29484,-223.27874)"/>
      <path d="m 1430.225,1721.2357 -13.002,177.1528 c -3.4512,47.0223 -4.7731,92.0979 0,138.1468 l 26.004,-82.8881 c 0,0 8.9057,-96.573 4.8758,-144.6477 -2.4939,-29.7511 -17.8778,-87.7638 -17.8778,-87.7638 z" transform="matrix(0.59830577,0,0,0.59830577,-555.29484,-223.27874)"/>
    </g>
  </g>

  <!-- === WING STRIPES — alternating Neovim blue / green === -->

  <!-- LEFT wing stripes -->
  <polygon points="134,388 24,388 34,396 134,396" fill="#16B0ED"/>
  <polygon points="134,400 46,400 56,408 134,408" fill="#88C649"/>
  <polygon points="134,412 68,412 78,420 134,420" fill="#16B0ED"/>
  <polygon points="134,424 90,424 98,432 134,432" fill="#88C649"/>
  <polygon points="134,436 110,436 116,444 134,444" fill="#16B0ED"/>

  <!-- RIGHT wing stripes -->
  <polygon points="378,388 488,388 478,396 378,396" fill="#16B0ED"/>
  <polygon points="378,400 466,400 456,408 378,408" fill="#88C649"/>
  <polygon points="378,412 444,412 434,420 378,420" fill="#16B0ED"/>
  <polygon points="378,424 422,424 414,432 378,432" fill="#88C649"/>
  <polygon points="378,436 402,436 396,444 378,444" fill="#16B0ED"/>

  <!-- TESTPILOT text — white -->
  <text x="256" y="438"
    font-family="'Impact', 'Arial Black', 'Haettenschweiler', 'Helvetica Neue', sans-serif"
    font-size="58" font-weight="900"
    fill="#ffffff"
    text-anchor="middle" letter-spacing="3"
    stroke="#1a1a2e" stroke-width="1.5" paint-order="stroke">TESTPILOT</text>
</svg>
